# xmcd
#
# Track frame offsets: 
#        150
#        19476
#        33131
#        59293
#        81470
#        105049
#        130403
#        152573
#        171209
#        195372
#        210511
#        218820
#        239354
#
# Disc length: 3394 seconds
#
# Revision: 2
# Processed by: cddbd v1.4PL0 Copyright (c) Steve Scherf et al.
# Submitted via: ExactAudioCopy v0.95a3
#
DISCID=a60d400d
DTITLE=Liz Mandville Greeson - Ready To Cheat
DYEAR=1999
DGENRE=
TTITLE0=Just Getting Ready To Cheat
TTITLE1=Great Big Man
TTITLE2=Those Kisses
TTITLE3=Friendly Stranger
TTITLE4=Walking On Eggshells
TTITLE5=Reefer Woman
TTITLE6=Belly Rubbin
TTITLE7=Quit Doggin
TTITLE8=How Could I Not Love You
TTITLE9=He Left It In His Other Pants
TTITLE10=Jim Beam
TTITLE11=Chi-Town
TTITLE12=Goin Home
EXTD=(c) 1999 Earwig Music Company\nEarwig CD 4945
EXTT0=
EXTT1=
EXTT2=
EXTT3=
EXTT4=
EXTT5=
EXTT6=
EXTT7=
EXTT8=
EXTT9=
EXTT10=
EXTT11=
EXTT12=
PLAYORDER=
